/vscmnt/brussel_pixiu_data/_data_brussel/112/vsc11236/PredSimResults/SUBJ11_Dhondt2024_3seg/weighted-LRposFixed/worker_05.mot
version=1
nRows=4
nColumns=124
inDegrees=yes
endheader
                time	         pelvis_tilt	         pelvis_list	     pelvis_rotation	           pelvis_tx	           pelvis_ty	           pelvis_tz	       hip_flexion_r	     hip_adduction_r	      hip_rotation_r	        knee_angle_r	       ankle_angle_r	    subtalar_angle_r	         mtp_angle_r	       hip_flexion_l	     hip_adduction_l	      hip_rotation_l	        knee_angle_l	       ankle_angle_l	    subtalar_angle_l	         mtp_angle_l	    lumbar_extension	      lumbar_bending	     lumbar_rotation	          arm_flex_r	           arm_add_r	           arm_rot_r	        elbow_flex_r	          arm_flex_l	           arm_add_l	           arm_rot_l	        elbow_flex_l	glut_med1_r/activation	glut_med2_r/activation	glut_med3_r/activation	glut_min1_r/activation	glut_min2_r/activation	glut_min3_r/activation	semimem_r/activation	semiten_r/activation	bifemlh_r/activation	bifemsh_r/activation	    sar_r/activation	add_long_r/activation	add_brev_r/activation	add_mag1_r/activation	add_mag2_r/activation	add_mag3_r/activation	    tfl_r/activation	   pect_r/activation	   grac_r/activation	glut_max1_r/activation	glut_max2_r/activation	glut_max3_r/activation	iliacus_r/activation	  psoas_r/activation	quad_fem_r/activation	    gem_r/activation	   peri_r/activation	rect_fem_r/activation	vas_med_r/activation	vas_int_r/activation	vas_lat_r/activation	med_gas_r/activation	lat_gas_r/activation	 soleus_r/activation	tib_post_r/activation	flex_dig_r/activation	flex_hal_r/activation	tib_ant_r/activation	per_brev_r/activation	per_long_r/activation	per_tert_r/activation	ext_dig_r/activation	ext_hal_r/activation	glut_med1_l/activation	glut_med2_l/activation	glut_med3_l/activation	glut_min1_l/activation	glut_min2_l/activation	glut_min3_l/activation	semimem_l/activation	semiten_l/activation	bifemlh_l/activation	bifemsh_l/activation	    sar_l/activation	add_long_l/activation	add_brev_l/activation	add_mag1_l/activation	add_mag2_l/activation	add_mag3_l/activation	    tfl_l/activation	   pect_l/activation	   grac_l/activation	glut_max1_l/activation	glut_max2_l/activation	glut_max3_l/activation	iliacus_l/activation	  psoas_l/activation	quad_fem_l/activation	    gem_l/activation	   peri_l/activation	rect_fem_l/activation	vas_med_l/activation	vas_int_l/activation	vas_lat_l/activation	med_gas_l/activation	lat_gas_l/activation	 soleus_l/activation	tib_post_l/activation	flex_dig_l/activation	flex_hal_l/activation	tib_ant_l/activation	per_brev_l/activation	per_long_l/activation	per_tert_l/activation	ext_dig_l/activation	ext_hal_l/activation	 ercspn_r/activation	 ercspn_l/activation	 intobl_r/activation	 intobl_l/activation	 extobl_r/activation	 extobl_l/activation	
          1.31212712	         -2.92717802	         -1.97776220	          1.83807477	          1.27276331	          0.92269176	         -0.00388687	         24.54391703	          3.33568853	          1.05842318	         -2.96744101	          2.83016491	         -5.49105240	          0.17929656	        -14.36744435	          0.73971160	          9.06225074	         -7.12468601	          9.84894356	         -3.87655736	         14.90939053	         -4.58351999	          0.69626142	         -1.98256281	        -12.72797130	        -13.45114238	         17.18851299	         24.88034912	          8.17245813	        -13.51408713	         19.34968851	         48.13673196	          0.01485199	          0.01479101	          0.01000303	          0.01290845	          0.01000441	          0.01000288	          0.08406263	          0.03525923	          0.03439159	          0.01000055	          0.01000073	          0.07226901	          0.18150975	          0.13971876	          0.14669898	          0.06880149	          0.01000149	          0.01224031	          0.02989574	          0.01485102	          0.01556358	          0.05252090	          0.01674560	          0.01362798	          0.01554108	          0.01000281	          0.01000068	          0.01000072	          0.08012315	          0.07865010	          0.06545286	          0.01000017	          0.01000036	          0.01000018	          0.01043984	          0.01000543	          0.01000926	          0.24256680	          0.16753049	          0.10271932	          0.14589909	          0.32446151	          0.03462636	          0.24665442	          0.13572445	          0.07796182	          0.30104658	          0.27312808	          0.18752949	          0.01032719	          0.01000172	          0.01000162	          0.05091388	          0.10673182	          0.01000020	          0.01000025	          0.01000046	          0.01000174	          0.01000148	          0.32808899	          0.01000097	          0.01000163	          0.02215319	          0.01809416	          0.01000527	          0.28117390	          0.41579949	          0.01434257	          0.02205670	          0.10290665	          0.17351209	          0.01000084	          0.01000086	          0.01000084	          0.41089429	          0.45634787	          0.39119241	          0.21477354	          0.28289915	          0.33430240	          0.01218665	          0.02986092	          0.14000004	          0.01485345	          0.01484914	          0.01485124	          0.02031829	          0.01000002	          0.03992364	          0.01000006	          0.09453602	          0.01000010	
          1.32524839	         -2.93019966	         -2.16623719	          2.02970775	          1.28831427	          0.92227316	         -0.00360247	         23.59368432	          3.70999526	          1.25776990	         -2.04297514	          1.72505728	         -5.91918972	          0.20755530	        -14.51190891	          0.50475536	          8.67582198	         -8.57401277	          9.38726891	         -3.34848714	         16.29581741	         -4.44372418	          1.08536829	         -2.08316676	        -13.70753984	        -13.45133487	         16.99539163	         24.22119075	          7.99962398	        -13.53154956	         19.32248358	         49.59942599	          0.01218702	          0.01218584	          0.01000067	          0.01218708	          0.01218664	          0.01001570	          0.06897807	          0.02893229	          0.02822028	          0.01000024	          0.01000080	          0.05930128	          0.18817254	          0.16921002	          0.12050941	          0.05645574	          0.01000144	          0.01733646	          0.02453188	          0.01218657	          0.01277097	          0.04309666	          0.01374082	          0.01118262	          0.12359753	          0.01000109	          0.01000205	          0.01810038	          0.06575136	          0.06454190	          0.05371207	          0.01000005	          0.01000011	          0.01000002	          0.01000013	          0.01000086	          0.01000069	          0.25236031	          0.15345965	          0.09552934	          0.14903405	          0.35504301	          0.02841349	          0.26246414	          0.11136940	          0.06397197	          0.24702615	          0.22411690	          0.15387835	          0.01000376	          0.01000087	          0.01000071	          0.04177768	          0.08758016	          0.01485128	          0.01000524	          0.01000487	          0.01001276	          0.01000209	          0.28136060	          0.01510020	          0.01306008	          0.01817932	          0.01484923	          0.01001201	          0.23687299	          0.34367024	          0.01485280	          0.01809971	          0.08444060	          0.15137151	          0.01000184	          0.01000186	          0.01000177	          0.37562444	          0.41893494	          0.36987985	          0.20588371	          0.27865222	          0.32710876	          0.01000006	          0.02450269	          0.12363687	          0.01218812	          0.01218456	          0.01218636	          0.01667236	          0.01000172	          0.03275955	          0.01507359	          0.07757199	          0.01000015	
          1.33836966	         -2.92852835	         -2.35949746	          2.21201412	          1.30418679	          0.92194653	         -0.00330853	         22.63487798	          4.05167957	          1.48132270	         -1.68448527	          0.17824015	         -6.34256389	          0.22693398	        -14.57162403	          0.25574253	          8.25644890	        -10.18279778	          8.76782739	         -2.77644085	         17.78556263	         -4.28789104	          1.48679060	         -2.17433253	        -14.65421928	        -13.46048529	         16.96309940	         23.53249044	          7.72788296	        -13.54807310	         19.28473386	         51.02899497	          0.01000018	          0.01000013	          0.01000042	          0.01000039	          0.01000028	          0.01000028	          0.05660033	          0.02374088	          0.02315639	          0.01000383	          0.01484996	          0.04866036	          0.16887350	          0.13885467	          0.09888536	          0.04632512	          0.01000050	          0.01989679	          0.10226408	          0.01000044	          0.01047948	          0.03536330	          0.01808432	          0.01809916	          0.15939332	          0.03120899	          0.01000153	          0.01485246	          0.05395282	          0.05296041	          0.04407393	          0.01485170	          0.01485263	          0.01218696	          0.01483911	          0.01219825	          0.01380908	          0.20840255	          0.13511737	          0.08627766	          0.12229089	          0.41288929	          0.02331501	          0.21536855	          0.09138473	          0.05249253	          0.20282381	          0.18390045	          0.12626570	          0.01001733	          0.01000094	          0.01000087	          0.03428093	          0.07186468	          0.01218673	          0.01000099	          0.01000147	          0.01000456	          0.01000228	          0.23087258	          0.01239304	          0.01071795	          0.01491818	          0.01218663	          0.01000485	          0.19436795	          0.28835764	          0.01218771	          0.01485227	          0.06928817	          0.12420985	          0.01000331	          0.01000340	          0.01000331	          0.33943156	          0.37813979	          0.34377767	          0.19058047	          0.27374514	          0.31709972	          0.01000007	          0.02010599	          0.12394826	          0.01000112	          0.01000008	          0.01000036	          0.01368064	          0.01084677	          0.02688103	          0.01236879	          0.06365207	          0.01000025	
          1.35149093	         -2.92357689	         -2.56316109	          2.38013326	          1.32026442	          0.92173225	         -0.00301792	         21.63570226	          4.34768437	          1.73509454	         -1.42336246	         -1.66983258	         -6.76637100	          0.22073761	        -14.51647066	         -0.01044491	          7.80033659	        -11.98256260	          7.97440013	         -2.16894199	         19.36182055	         -4.12385500	          1.90731765	         -2.25410310	        -15.54214126	        -13.48443834	         17.11906277	         22.80795109	          7.37455631	        -13.56046926	         19.24176617	         52.41223588	          0.17077315	          0.15474673	          0.17419955	          0.04653336	          0.10787429	          0.18927282	          0.04644377	          0.03694073	          0.01953360	          0.02203843	          0.01218813	          0.03992856	          0.13857005	          0.11393813	          0.08114118	          0.03801248	          0.01218982	          0.01632724	          0.08391383	          0.01393075	          0.01000249	          0.02901771	          0.01483928	          0.01485146	          0.13079110	          0.02560965	          0.10233508	          0.01218732	          0.04427149	          0.04345718	          0.03616531	          0.01218666	          0.01218744	          0.01000009	          0.01217636	          0.01000963	          0.01133133	          0.38175385	          0.17052994	          0.09076473	          0.44060308	          0.50054190	          0.18662597	          0.21071636	          0.07498621	          0.04307301	          0.27964233	          0.15090058	          0.10360798	          0.01001224	          0.01000070	          0.01000049	          0.02812943	          0.05896913	          0.01000083	          0.01000076	          0.01000100	          0.01000270	          0.01000155	          0.18944402	          0.01017576	          0.01000167	          0.01224207	          0.01000339	          0.01000181	          0.15948986	          0.23937052	          0.01000085	          0.01218745	          0.05685477	          0.10192107	          0.01000124	          0.01000125	          0.01000088	          0.27852272	          0.32216093	          0.30354318	          0.16955211	          0.23165684	          0.27856946	          0.01000008	          0.01649878	          0.12503492	          0.01000031	          0.01000013	          0.01000047	          0.02929360	          0.02489842	          0.02205743	          0.01014929	          0.05223001	          0.01000018	
